<?xml version="1.0" standalone="no"?>
<!DOCTYPE svg PUBLIC "-//W3C//DTD SVG 20010904//EN"
 "http://www.w3.org/TR/2001/REC-SVG-20010904/DTD/svg10.dtd">
<svg version="1.0" xmlns="http://www.w3.org/2000/svg"
 width="1063.000000pt" height="506.000000pt" viewBox="0 0 1063.000000 506.000000"
 preserveAspectRatio="xMidYMid meet">
<metadata>
Created by potrace 1.16, written by Peter Selinger 2001-2019
</metadata>
<g transform="translate(0.000000,506.000000) scale(0.100000,-0.100000)"
fill="#000000" stroke="none">
<path d="M3548 3403 c-16 -19 -119 -324 -182 -541 -30 -102 -36 -140 -36 -216
0 -156 48 -273 155 -376 255 -244 670 -171 821 145 43 88 58 169 51 266 -21
279 -248 478 -544 479 l-51 0 -16 45 c-14 44 -91 169 -123 200 -20 20 -56 19
-75 -2z m82 -215 c26 -58 25 -68 -15 -156 -43 -93 -156 -295 -161 -289 -8 7
142 487 152 487 3 0 14 -19 24 -42z m372 -201 c113 -52 194 -157 218 -284 31
-160 -60 -332 -215 -409 -54 -26 -70 -29 -160 -29 -88 0 -107 3 -157 27 -77
36 -151 107 -188 180 -24 50 -28 64 -18 82 6 11 42 75 81 141 39 66 94 165
123 220 l52 100 53 5 c76 7 150 -4 211 -33z"/>
<path d="M1272 3142 c-70 -25 -121 -68 -152 -128 -21 -41 -25 -62 -25 -135 0
-77 3 -90 28 -127 37 -56 105 -104 202 -143 169 -67 228 -108 245 -170 34
-124 -132 -229 -275 -175 -48 19 -121 91 -131 130 -7 31 -4 30 -71 9 -57 -18
-61 -25 -39 -78 23 -54 62 -100 119 -139 224 -152 527 -23 527 224 -1 145 -78
220 -329 320 -127 50 -172 106 -150 185 21 74 80 115 166 115 64 -1 119 -27
171 -84 l43 -47 50 36 c27 20 49 41 49 45 0 21 -110 119 -164 145 -77 38 -186
45 -264 17z"/>
<path d="M7975 3149 c-183 -26 -361 -189 -410 -374 -31 -119 -16 -257 41 -374
33 -68 139 -176 210 -213 145 -78 339 -78 502 -1 58 27 202 160 202 185 0 7
-23 28 -51 47 -49 33 -51 34 -61 15 -21 -38 -106 -112 -159 -137 -31 -14 -85
-31 -121 -37 -254 -44 -489 185 -448 438 36 218 249 367 462 323 88 -19 170
-65 228 -128 56 -61 59 -62 125 -8 l29 23 -41 55 c-73 95 -203 167 -341 187
-76 11 -84 11 -167 -1z"/>
<path d="M2150 2645 l0 -505 65 0 65 0 0 215 0 215 235 0 235 0 0 -215 0 -215
65 0 65 0 0 505 0 505 -65 0 -65 0 0 -230 0 -230 -235 0 -235 0 0 230 0 230
-65 0 -65 0 0 -505z"/>
<path d="M4810 2645 l0 -505 65 0 65 0 0 220 0 220 195 0 195 0 0 65 0 65
-195 0 -195 0 0 160 0 160 235 0 235 0 0 60 0 60 -300 0 -300 0 0 -505z"/>
<path d="M5870 2646 l0 -506 65 0 65 0 0 200 0 201 81 -3 81 -3 113 -195 113
-195 77 -3 c42 -2 75 1 72 5 -2 4 -55 94 -116 200 -61 105 -111 195 -111 200
1 4 24 22 53 38 93 54 156 182 143 292 -12 103 -69 189 -157 238 l-54 30 -212
3 -213 3 0 -505z m373 373 c47 -13 106 -63 123 -106 30 -71 11 -147 -49 -200
-48 -42 -91 -53 -214 -53 l-103 0 0 185 0 185 103 0 c56 0 119 -5 140 -11z"/>
<path d="M6970 2645 l0 -505 65 0 65 0 0 505 0 505 -65 0 -65 0 0 -505z"/>
<path d="M8982 2667 c-101 -266 -185 -493 -189 -505 -5 -21 -2 -22 60 -22 l65
0 50 128 c27 70 52 137 56 150 7 22 9 22 191 22 l183 0 50 -127 c27 -71 52
-138 56 -150 7 -21 14 -23 77 -23 38 0 69 1 69 3 0 1 -87 227 -193 502 l-193
500 -50 3 -49 2 -183 -483z m301 70 l65 -167 -129 0 c-71 0 -129 3 -129 8 -1
10 122 333 126 330 1 -2 32 -78 67 -171z"/>
</g>
</svg>
